<svg width="85" height="85" viewBox="0 0 85 85" fill="none" xmlns="http://www.w3.org/2000/svg">
<path d="M63.6386 37.9194C65.4597 37.9194 66.936 36.4431 66.936 34.622C66.936 32.801 65.4597 31.3247 63.6386 31.3247C61.8176 31.3247 60.3413 32.801 60.3413 34.622C60.3413 36.4431 61.8176 37.9194 63.6386 37.9194Z" fill="#666666"/>
<path d="M71.2225 6.59468H66.936V3.29734C66.936 1.47622 65.4598 0 63.6387 0C61.8175 0 60.3413 1.47622 60.3413 3.29734V6.59468H45.3384V3.29734C45.3384 1.47622 43.8622 0 42.0411 0C40.22 0 38.7437 1.47622 38.7437 3.29734V6.59468H23.9057V3.29734C23.9057 1.47622 22.4295 0 20.6084 0C18.7873 0 17.311 1.47622 17.311 3.29734V6.59468H13.1894C5.91675 6.59468 0 12.5114 0 19.784V71.2225C0 78.4952 5.91675 84.4119 13.1894 84.4119H38.414C40.2351 84.4119 41.7114 82.9357 41.7114 81.1146C41.7114 79.2934 40.2351 77.8172 38.414 77.8172H13.1894C9.55305 77.8172 6.59468 74.8589 6.59468 71.2225V19.784C6.59468 16.1477 9.55305 13.1894 13.1894 13.1894H17.311V16.4867C17.311 18.3078 18.7873 19.784 20.6084 19.784C22.4295 19.784 23.9057 18.3078 23.9057 16.4867V13.1894H38.7437V16.4867C38.7437 18.3078 40.22 19.784 42.0411 19.784C43.8622 19.784 45.3384 18.3078 45.3384 16.4867V13.1894H60.3413V16.4867C60.3413 18.3078 61.8175 19.784 63.6387 19.784C65.4598 19.784 66.936 18.3078 66.936 16.4867V13.1894H71.2225C74.8589 13.1894 77.8172 16.1477 77.8172 19.784V38.5789C77.8172 40.4 79.2934 41.8762 81.1146 41.8762C82.9357 41.8762 84.4119 40.4 84.4119 38.5789V19.784C84.4119 12.5114 78.4952 6.59468 71.2225 6.59468Z" fill="#4D4D4D"/>
<path d="M64.4621 44.5132C53.4622 44.5132 44.5132 53.4622 44.5132 64.4621C44.5132 75.462 53.4622 84.411 64.4621 84.411C75.462 84.411 84.411 75.462 84.411 64.4621C84.411 53.4622 75.462 44.5132 64.4621 44.5132ZM64.4621 77.8163C57.0986 77.8163 51.1079 71.8257 51.1079 64.4621C51.1079 57.0985 57.0986 51.1079 64.4621 51.1079C71.8255 51.1079 77.8163 57.0985 77.8163 64.4621C77.8163 71.8257 71.8255 77.8163 64.4621 77.8163Z" fill="#CC0000"/>
<path d="M69.244 61.1658H67.7602V57.7036C67.7602 55.8825 66.284 54.4062 64.4629 54.4062C62.6417 54.4062 61.1655 55.8825 61.1655 57.7036V64.4631C61.1655 66.2843 62.6417 67.7605 64.4629 67.7605H69.244C71.0651 67.7605 72.5414 66.2843 72.5414 64.4631C72.5414 62.642 71.0651 61.1658 69.244 61.1658Z" fill="#CC0000"/>
<path d="M49.2949 37.9194C51.116 37.9194 52.5922 36.4431 52.5922 34.622C52.5922 32.801 51.116 31.3247 49.2949 31.3247C47.4738 31.3247 45.9976 32.801 45.9976 34.622C45.9976 36.4431 47.4738 37.9194 49.2949 37.9194Z" fill="#666666"/>
<path d="M34.9511 52.2622C36.7722 52.2622 38.2485 50.7859 38.2485 48.9648C38.2485 47.1437 36.7722 45.6675 34.9511 45.6675C33.1301 45.6675 31.6538 47.1437 31.6538 48.9648C31.6538 50.7859 33.1301 52.2622 34.9511 52.2622Z" fill="#666666"/>
<path d="M20.6079 37.9194C22.429 37.9194 23.9052 36.4431 23.9052 34.622C23.9052 32.801 22.429 31.3247 20.6079 31.3247C18.7868 31.3247 17.3105 32.801 17.3105 34.622C17.3105 36.4431 18.7868 37.9194 20.6079 37.9194Z" fill="#666666"/>
<path d="M20.6079 52.2622C22.429 52.2622 23.9052 50.7859 23.9052 48.9648C23.9052 47.1437 22.429 45.6675 20.6079 45.6675C18.7868 45.6675 17.3105 47.1437 17.3105 48.9648C17.3105 50.7859 18.7868 52.2622 20.6079 52.2622Z" fill="#666666"/>
<path d="M20.6079 66.6064C22.429 66.6064 23.9052 65.1301 23.9052 63.3091C23.9052 61.488 22.429 60.0117 20.6079 60.0117C18.7868 60.0117 17.3105 61.488 17.3105 63.3091C17.3105 65.1301 18.7868 66.6064 20.6079 66.6064Z" fill="#666666"/>
<path d="M34.9511 66.6064C36.7722 66.6064 38.2485 65.1301 38.2485 63.3091C38.2485 61.488 36.7722 60.0117 34.9511 60.0117C33.1301 60.0117 31.6538 61.488 31.6538 63.3091C31.6538 65.1301 33.1301 66.6064 34.9511 66.6064Z" fill="#666666"/>
<path d="M34.9511 37.9194C36.7722 37.9194 38.2485 36.4431 38.2485 34.622C38.2485 32.801 36.7722 31.3247 34.9511 31.3247C33.1301 31.3247 31.6538 32.801 31.6538 34.622C31.6538 36.4431 33.1301 37.9194 34.9511 37.9194Z" fill="#666666"/>
</svg>
